<svg id="SvgjsSvg1031" width="24" height="24" xmlns="http://www.w3.org/2000/svg" version="1.1" xmlns:xlink="http://www.w3.org/1999/xlink" xmlns:svgjs="http://svgjs.com/svgjs"><defs id="SvgjsDefs1032"></defs><g id="SvgjsG1033"><svg xmlns="http://www.w3.org/2000/svg" width="24" height="24" fill="#a8d4ff"  viewBox="0 0 24 24"><path d="M17 6V5a3 3 0 00-3-3h-4a3 3 0 00-3 3v1H2v4a3 3 0 003 3h14a3 3 0 003-3V6zM9 5a1 1 0 011-1h4a1 1 0 011 1v1H9zm10 9a4 4 0 003-1.38V17a3 3 0 01-3 3H5a3 3 0 01-3-3v-4.38A4 4 0 005 14z" fill="#a8d4ff" class="color000 svgShape"></path></svg></g></svg>